#N canvas 0 0 988 559 12;
#X obj 210 195 comport 115200;
#X msg 228 163 devices;
#X msg 297 164 open 32;
#X obj 210 227 t a a;
#X obj 195 371 zl group 10;
#X msg 139 340 zlclear;
#X msg 42 161 255 1 1 1 1 1 1 1 1 1 1;
#X obj 103 397 print;
#X obj 43 187 zl iter 1;
#X obj 149 319 bng 20 250 50 0 empty empty empty 0 -10 0 12 #fcfcfc #000000 #000000;
#X obj 149 292 select 255;
#X obj 194 406 unpack f f f f f f f f f f, f 54;
#X floatatom 187 445 5 0 0 0 - - - 0;
#X floatatom 234 444 5 0 0 0 - - - 0;
#X floatatom 276 443 5 0 0 0 - - - 0;
#X floatatom 323 442 5 0 0 0 - - - 0;
#X floatatom 366 441 5 0 0 0 - - - 0;
#X floatatom 413 440 5 0 0 0 - - - 0;
#X floatatom 455 439 5 0 0 0 - - - 0;
#X floatatom 502 438 5 0 0 0 - - - 0;
#X floatatom 542 438 5 0 0 0 - - - 0;
#X floatatom 589 437 5 0 0 0 - - - 0;
#X connect 0 0 3 0;
#X connect 1 0 0 0;
#X connect 2 0 0 0;
#X connect 3 0 10 0;
#X connect 3 1 4 0;
#X connect 4 0 7 0;
#X connect 4 0 11 0;
#X connect 5 0 4 0;
#X connect 6 0 8 0;
#X connect 8 0 3 0;
#X connect 9 0 5 0;
#X connect 10 0 9 0;
#X connect 11 0 12 0;
#X connect 11 1 13 0;
#X connect 11 2 14 0;
#X connect 11 3 15 0;
#X connect 11 4 16 0;
#X connect 11 5 17 0;
#X connect 11 6 18 0;
#X connect 11 7 19 0;
#X connect 11 8 20 0;
#X connect 11 9 21 0;
